<svg width="1440" height="1120" viewBox="0 0 1440 1120" fill="none" xmlns="http://www.w3.org/2000/svg">
  <defs>
    <radialGradient id="backGlow" cx="0" cy="0" r="1" gradientUnits="userSpaceOnUse" gradientTransform="translate(706 330) rotate(90) scale(620 820)">
      <stop stop-color="#FFB000" stop-opacity="0.5"/>
      <stop offset="0.42" stop-color="#FF4B12" stop-opacity="0.24"/>
      <stop offset="1" stop-color="#08070A" stop-opacity="0"/>
    </radialGradient>
    <linearGradient id="sky" x1="150" y1="87" x2="1241" y2="1058" gradientUnits="userSpaceOnUse">
      <stop stop-color="#24101A"/>
      <stop offset="0.48" stop-color="#120D14"/>
      <stop offset="1" stop-color="#050508"/>
    </linearGradient>
    <linearGradient id="floor" x1="246" y1="845" x2="1194" y2="1043" gradientUnits="userSpaceOnUse">
      <stop stop-color="#FF4B12" stop-opacity="0.42"/>
      <stop offset="0.49" stop-color="#FFB000" stop-opacity="0.32"/>
      <stop offset="1" stop-color="#00C9FF" stop-opacity="0.34"/>
    </linearGradient>
    <linearGradient id="beamA" x1="410" y1="8" x2="626" y2="878" gradientUnits="userSpaceOnUse">
      <stop stop-color="#FFB000" stop-opacity="0.7"/>
      <stop offset="1" stop-color="#FF4B12" stop-opacity="0"/>
    </linearGradient>
    <linearGradient id="beamB" x1="1033" y1="11" x2="808" y2="881" gradientUnits="userSpaceOnUse">
      <stop stop-color="#00C9FF" stop-opacity="0.58"/>
      <stop offset="1" stop-color="#00C9FF" stop-opacity="0"/>
    </linearGradient>
    <filter id="softBlur" x="-30%" y="-30%" width="160%" height="160%" color-interpolation-filters="sRGB">
      <feGaussianBlur stdDeviation="18"/>
    </filter>
    <filter id="hotGlow" x="-80%" y="-80%" width="260%" height="260%" color-interpolation-filters="sRGB">
      <feGaussianBlur stdDeviation="9" result="blur"/>
      <feColorMatrix in="blur" type="matrix" values="1 0 0 0 0.95 0 1 0 0 0.2 0 0 1 0 0.05 0 0 0 0.8 0"/>
      <feBlend in="SourceGraphic"/>
    </filter>
  </defs>

  <rect width="1440" height="1120" rx="42" fill="url(#sky)"/>
  <rect width="1440" height="1120" rx="42" fill="url(#backGlow)"/>

  <path d="M300 -30H444L666 900H170L300 -30Z" fill="url(#beamA)" opacity="0.7" filter="url(#softBlur)"/>
  <path d="M1008 -30H1156L1268 906H765L1008 -30Z" fill="url(#beamB)" opacity="0.75" filter="url(#softBlur)"/>
  <path d="M561 -40H877L982 956H458L561 -40Z" fill="#FF2F6D" opacity="0.11" filter="url(#softBlur)"/>

  <g opacity="0.28">
    <path d="M42 764C275 704 402 707 628 762C867 841 1057 838 1398 741" stroke="#FFB000" stroke-width="3"/>
    <path d="M61 813C287 756 441 757 654 823C884 895 1068 885 1386 794" stroke="#00C9FF" stroke-width="3"/>
  </g>

  <ellipse cx="720" cy="928" rx="620" ry="118" fill="url(#floor)" opacity="0.8"/>
  <ellipse cx="720" cy="928" rx="520" ry="54" fill="#08070A" opacity="0.65"/>

  <g filter="url(#hotGlow)">
    <rect x="208" y="784" width="1024" height="16" rx="8" fill="url(#floor)"/>
    <rect x="306" y="724" width="828" height="4" rx="2" fill="#FFE2A6" opacity="0.75"/>
  </g>

  <g transform="translate(152 615)">
    <circle cx="174" cy="180" r="70" fill="#FF2F6D"/>
    <circle cx="174" cy="180" r="46" fill="#1A1018"/>
    <rect x="144" y="18" width="64" height="178" rx="30" fill="#191318"/>
    <circle cx="176" cy="-16" r="34" fill="#FFD5AD"/>
    <path d="M116 90L232 178" stroke="#FFB000" stroke-width="18" stroke-linecap="round"/>
    <path d="M246 184L362 248" stroke="#FFB000" stroke-width="10" stroke-linecap="round"/>
    <rect x="78" y="168" width="162" height="54" rx="27" fill="#FF4B12" transform="rotate(26 78 168)"/>
    <path d="M150 194L94 324" stroke="#151014" stroke-width="24" stroke-linecap="round"/>
    <path d="M198 194L254 324" stroke="#151014" stroke-width="24" stroke-linecap="round"/>
  </g>

  <g transform="translate(578 486)">
    <rect x="72" y="110" width="98" height="272" rx="48" fill="#151116"/>
    <path d="M72 138C88 100 145 96 170 138V230H72V138Z" fill="#FF4B12"/>
    <circle cx="121" cy="54" r="44" fill="#FFD5AD"/>
    <path d="M42 176L-18 256" stroke="#FFB000" stroke-width="20" stroke-linecap="round"/>
    <path d="M196 176L258 254" stroke="#00C9FF" stroke-width="20" stroke-linecap="round"/>
    <path d="M114 382L72 536" stroke="#111015" stroke-width="28" stroke-linecap="round"/>
    <path d="M138 382L194 534" stroke="#111015" stroke-width="28" stroke-linecap="round"/>
    <rect x="196" y="-42" width="12" height="260" rx="6" fill="#E6EDF2" transform="rotate(-12 196 -42)"/>
    <circle cx="196" cy="-48" r="18" fill="#FFB000"/>
  </g>

  <g transform="translate(962 646)">
    <circle cx="148" cy="226" r="92" fill="#00C9FF" opacity="0.92"/>
    <circle cx="148" cy="226" r="66" fill="#09080B"/>
    <circle cx="36" cy="270" r="60" fill="#FFB000" opacity="0.9"/>
    <circle cx="36" cy="270" r="41" fill="#09080B"/>
    <rect x="102" y="58" width="78" height="170" rx="38" fill="#171217"/>
    <circle cx="140" cy="18" r="38" fill="#FFD5AD"/>
    <path d="M80 118L10 54" stroke="#FF4B12" stroke-width="16" stroke-linecap="round"/>
    <path d="M192 118L280 44" stroke="#FFB000" stroke-width="16" stroke-linecap="round"/>
    <path d="M1 35L54 92" stroke="#F5F7F8" stroke-width="7" stroke-linecap="round"/>
    <path d="M294 26L238 92" stroke="#F5F7F8" stroke-width="7" stroke-linecap="round"/>
  </g>

  <g opacity="0.8">
    <circle cx="220" cy="210" r="5" fill="#FFB000"/>
    <circle cx="330" cy="146" r="3" fill="#FF4B12"/>
    <circle cx="492" cy="238" r="4" fill="#FFE2A6"/>
    <circle cx="1014" cy="198" r="4" fill="#00C9FF"/>
    <circle cx="1192" cy="300" r="5" fill="#FFB000"/>
    <circle cx="1280" cy="164" r="3" fill="#FF4B12"/>
  </g>

  <text x="718" y="1018" text-anchor="middle" fill="#FFF8EF" fill-opacity="0.16" font-family="Arial Black, Arial, sans-serif" font-size="150" font-weight="900" letter-spacing="0">LIVE</text>
</svg>
